screens;
 
http://baypic.net/img-519fc52ce1031.html 
 
http://baypic.net/img-519fc52ebbc50.html 
 
http://baypic.net/img-519fc530a725f.html 

Format : MPEG-4
Format profile : Base Media / Version 2
Codec ID : mp42
File size : 702 MiB
Duration : 23mn 26s
Overall bit rate mode : Variable
Overall bit rate : 4 186 Kbps
Encoded date : UTC 2013-05-22 07:07:28
Tagged date : UTC 2013-05-22 07:07:28
?TIM : 00;00;00;00
?TSC : 30000
?TSZ : 1001

Video
ID : 1
Format : AVC
Format/Info : Advanced Video Codec
Format profile : Main@L3.1
Format settings, CABAC : Yes
Format settings, ReFrames : 3 frames
Format settings, GOP : M=4, N=33
Codec ID : avc1
Codec ID/Info : Advanced Video Coding
Duration : 23mn 26s
Bit rate mode : Constant
Bit rate : 4 000 Kbps
Width : 1 280 pixels
Height : 720 pixels
Display aspect ratio : 16:9
Frame rate mode : Constant
Frame rate : 29.970 fps
Standard : NTSC
Color space : YUV
Chroma subsampling : 4:2:0
Bit depth : 8 bits
Scan type : Progressive
Bits/(Pixel*Frame) : 0.145
Stream size : 669 MiB (95%)
Language : English
Encoded date : UTC 2013-05-22 07:07:28
Tagged date : UTC 2013-05-22 07:07:28

Audio
ID : 2
Format : AAC
Format/Info : Advanced Audio Codec
Format profile : LC
Codec ID : 40
Duration : 23mn 26s
Source duration : 23mn 26s
Bit rate mode : Variable
Bit rate : 192 Kbps
Maximum bit rate : 286 Kbps
Channel(s) : 2 channels
Channel positions : Front: L R
Sampling rate : 48.0 KHz
Compression mode : Lossy
Stream size : 31.7 MiB (5%)
Source stream size : 31.7 MiB (5%)
Language : English
